<?xml version="1.0" encoding="UTF-8" standalone="no"?>
<svg width="114px" height="24px" viewBox="0 0 114 24" version="1.1" xmlns="http://www.w3.org/2000/svg" xmlns:xlink="http://www.w3.org/1999/xlink">
    <!-- Generator: Sketch 46.2 (44496) - http://www.bohemiancoding.com/sketch -->
    <title>pandora_logo</title>
    <desc>Created with Sketch.</desc>
    <defs></defs>
    <g id="Page-1" stroke="none" stroke-width="1" fill="none" fill-rule="evenodd">
        <g id="Desktop" transform="translate(-372.000000, -328.000000)" fill-rule="nonzero" fill="#FFFFFF">
            <g id="form_container" transform="translate(332.000000, 280.000000)">
                <g id="form_marketing">
                    <g id="pandora_logo" transform="translate(40.000000, 48.000000)">
                        <path d="M66.6293201,1.43722037 C66.5908848,0.715201336 67.224448,0.0358692343 67.9571992,0.00781781892 C68.5039729,-0.00925695564 69.0495067,0.00659819216 69.5962805,0.00903744567 C69.6,6.34011993 69.5938008,12.672422 69.6,19.0035045 C69.5925609,19.1779111 69.5801624,19.3523178 69.559085,19.5267244 C68.5833233,19.5120889 67.6075616,19.5230655 66.6317998,19.5194066 C66.6268404,19.1022943 66.6256006,18.6839623 66.6268404,18.2656303 C65.4006291,19.1803504 63.9438057,19.8304115 62.398953,19.956033 C60.1833416,20.1926406 57.8809407,19.4657431 56.2381399,17.9814573 C54.5494646,16.5008304 53.5327879,14.2823293 53.6034593,12.0504124 C53.5737029,10.3844022 54.1613917,8.72692948 55.1693895,7.39387744 C56.5121467,5.61322238 58.645928,4.41554891 60.9024544,4.25821706 C62.9482064,4.0594179 65.0162757,4.7253341 66.6268404,5.960816 C66.63056,4.45335734 66.6243607,2.94467904 66.6293201,1.43722037 L66.6293201,1.43722037 Z M60.468507,7.39509707 C58.5479799,7.89148516 57.0390828,9.61237851 56.8369873,11.5576832 C56.6596888,12.9712306 57.1680272,14.4518575 58.176025,15.4751243 C59.1480671,16.4983912 60.5912522,17.0764942 62.0145996,16.9972185 C63.4540651,16.9252605 64.8476561,16.2008022 65.7081118,15.0628905 C66.3379555,14.2372032 66.7185893,13.2163756 66.7123901,12.1784732 C66.7632239,10.5161219 65.846975,8.87328469 64.419908,7.99149455 C63.2656079,7.2597185 61.7914267,7.02067165 60.468507,7.39509707 Z" id="Shape"></path>
                        <path d="M2.95000549,5.74402026 C4.51432715,4.52691462 6.52772451,3.86836046 8.52623538,4.0220231 C10.592976,4.13422121 12.5877652,5.10253973 13.9585626,6.62331202 C15.0862139,7.85749129 15.8106896,9.4526558 15.9558329,11.1087975 C16.1853329,13.1893409 15.5117194,15.3491546 14.1384409,16.9491973 C12.7899733,18.5455813 10.776576,19.5956094 8.66641646,19.7419547 C6.62572721,19.9346428 4.54906229,19.2809668 2.95000549,18.0309335 C2.94876495,19.5419494 2.95124603,21.0529653 2.95000549,22.5627617 C2.98225954,23.2579022 2.40540818,23.9103586 1.70574329,23.9871899 C1.13881625,24.0152395 0.569408124,23.9871899 0,23.9957268 C0.00868378403,17.4918947 0,10.9880626 0.0049621623,4.4854501 C0.984989217,4.47569374 1.96377573,4.4854501 2.94380279,4.47935237 C2.95000549,4.90131485 2.95248657,5.32205779 2.95000549,5.74402026 L2.95000549,5.74402026 Z M6.83165695,7.09649537 C5.63081367,7.34284341 4.52921364,8.03432527 3.81094065,9.01483924 C2.93263792,10.1880413 2.6262244,11.7649126 3.03436225,13.1686086 C3.39411901,14.5064492 4.36918391,15.6650167 5.63329475,16.2699109 C6.76838938,16.8345601 8.13298401,16.9394409 9.34002999,16.5369912 C10.9155165,16.0528319 12.1709436,14.7332845 12.6051328,13.1734868 C13.1360842,11.3588042 12.4475841,9.29533453 10.9614165,8.11237614 C9.8325246,7.18918077 8.27068402,6.79282873 6.83165695,7.09649537 Z" id="Shape"></path>
                        <path d="M19.8829197,6.41156518 C21.2615227,4.98521994 23.1947932,4.1007127 25.1814211,4.01535466 C27.1357863,3.88917321 29.0951151,4.54729607 30.6313082,5.74601987 C30.6263447,5.32417796 30.6064909,4.90109897 30.6623299,4.4817312 C31.6413738,4.49781315 32.6204177,4.47801998 33.5994617,4.49286486 C33.5957391,9.50053661 33.605666,14.5069713 33.5944982,19.514643 C32.6278629,19.5208284 31.6599868,19.4960869 30.6933515,19.5282508 C30.5717466,19.1125943 30.6511621,18.6759075 30.6126952,18.2503544 C29.0653343,19.5010352 27.0352761,20.1307054 25.0498892,19.9773084 C23.0806335,19.8634976 21.1796255,18.9579602 19.8270807,17.5316149 C18.500594,16.1720716 17.7163662,14.3201732 17.6121333,12.4299256 C17.4880467,10.2279356 18.3206683,7.98017382 19.8829197,6.41156518 L19.8829197,6.41156518 Z M24.7285047,7.15628316 C22.3472812,7.63874165 20.5728416,10.0473229 20.8421097,12.4583783 C20.9736416,13.8228699 21.6908626,15.1119 22.7853072,15.941976 C24.0100428,16.8784403 25.6889356,17.2211096 27.1717715,16.7596813 C28.7315411,16.3168092 30.0245243,15.0599429 30.5097032,13.5173128 C31.1785305,11.555315 30.4253243,9.2345659 28.7427089,8.0222343 C27.6122792,7.17978755 26.1095894,6.83464416 24.7285047,7.15628316 Z" id="Shape"></path>
                        <path d="M43.0897963,4.05124186 C44.6790565,3.87306396 46.3253415,4.16033038 47.7373285,4.90092017 C50.3741119,6.24028469 52.1121327,9.10082791 51.9943638,12.0122791 C51.9869258,14.4085901 52.0018018,16.803689 51.9856861,19.1987879 C50.9208074,19.1963637 49.8546891,19.1963637 48.7898104,19.1987879 C48.7736947,16.7249029 48.7922898,14.2510178 48.779893,11.7783448 C48.7786534,10.0098988 47.644353,8.31175433 45.9993077,7.58570968 C44.7559161,7.00875265 43.2521934,7.01117684 42.0075622,7.58328549 C40.6885507,8.17115136 39.680697,9.37718547 39.3521838,10.7577612 C39.1749106,11.4886542 39.2282165,12.2437892 39.2220182,12.9880152 C39.2170595,15.0582728 39.2294562,17.1285304 39.2158198,19.1987879 C38.1509411,19.1975758 37.0860625,19.1963637 36.0211838,19.2 C35.9790349,16.764902 36.0149854,14.329804 36.0025887,11.8947059 C35.9963903,10.3408007 36.4525898,8.78689541 37.3389556,7.49359049 C38.6195373,5.60151084 40.7740881,4.28275193 43.0897963,4.05124186 Z" id="Shape"></path>
                        <path d="M77.8384323,4.10930936 C79.4208954,3.85190303 81.0839698,4.04619531 82.5424155,4.72312446 C84.2823808,5.51885654 85.7123024,6.96057952 86.4960929,8.7030224 C87.4113419,10.7164844 87.4349052,13.1123434 86.5618221,15.1456059 C85.7569486,17.0452152 84.1844069,18.6069786 82.2732975,19.394048 C81.056686,19.9039105 79.7098561,20.0920151 78.3989913,19.9583619 C76.4196723,19.7838701 74.5358467,18.8074585 73.2237417,17.3261346 C72.0244926,15.9896017 71.2927895,14.2372586 71.2158986,12.4428394 C71.0856803,10.4405152 71.7603354,8.39982744 73.0575583,6.86528968 C74.2568073,5.42109164 75.9831307,4.42240456 77.8384323,4.10930936 L77.8384323,4.10930936 Z M78.0901878,7.34545149 C76.1815587,7.78972492 74.6412615,9.50741719 74.4539951,11.4602402 C74.1823968,13.4576144 75.3717245,15.5106774 77.1985021,16.3410603 C78.325821,16.8719609 79.6627295,16.9202246 80.8322143,16.4945141 C82.2658565,15.9747513 83.411778,14.7335083 83.8098741,13.2633221 C83.9872191,12.6754951 83.9785379,12.0530173 83.9450532,11.4466274 C83.7776296,9.81803734 82.6800749,8.33795091 81.1968258,7.65607164 C80.2344501,7.20684808 79.1207731,7.10413305 78.0901878,7.34545149 Z" id="Shape"></path>
                        <path d="M90.5404715,6.53191727 C92.113369,4.77316937 94.5185566,4.0218478 96.7999127,4 C96.7975314,5.0523357 96.8034848,6.1046714 96.7963407,7.15822087 C95.486585,7.14244191 94.1065789,7.50414437 93.1290249,8.43388964 C92.2669676,9.24468578 91.8919012,10.4669488 91.8907105,11.6370199 C91.8895198,14.1555857 91.8930919,16.6741516 91.8883291,19.1927174 C90.8643384,19.1939312 89.8403476,19.1830073 88.8163568,19.2 C88.7830176,16.6802204 88.8127848,14.1580133 88.8020686,11.6382337 C88.7949245,9.80908728 89.3045385,7.90225984 90.5404715,6.53191727 Z" id="Shape"></path>
                        <path d="M99.2539731,7.12341974 C100.521534,5.46100775 102.470578,4.32428408 104.550964,4.07195368 C106.699498,3.77385749 108.931048,4.41457877 110.623607,5.76034086 C110.622368,5.33731638 110.622368,4.91305499 110.624846,4.49003051 C111.614857,4.48631977 112.604868,4.49003051 113.594878,4.48755668 C113.602313,9.49582018 113.601074,14.5040837 113.594878,19.5123472 C112.604868,19.5111103 111.616096,19.5135841 110.626085,19.5111103 C110.623607,19.0868489 110.621129,18.6625875 110.622368,18.2383261 C109.067345,19.4727659 107.058826,20.1295671 105.072609,19.9786636 C103.479175,19.8920797 101.925391,19.2897027 100.67146,18.3075933 C99.0086388,17.0150185 97.8810922,15.0396673 97.6605392,12.9418617 C97.4003361,10.8935326 97.9876516,8.75490889 99.2539731,7.12341974 L99.2539731,7.12341974 Z M104.724432,7.15434258 C102.652721,7.58231471 100.992377,9.45994968 100.838734,11.5688875 C100.68509,13.1175034 101.340554,14.7069375 102.513946,15.7261544 C103.694772,16.7762941 105.402199,17.2153985 106.938637,16.8183492 C108.156635,16.5214899 109.248248,15.745945 109.927254,14.6933315 C110.644671,13.5998998 110.901157,12.2145565 110.609978,10.9392984 C110.313842,9.54900747 109.377111,8.31456761 108.124419,7.64292348 C107.098476,7.08012776 105.866848,6.89459071 104.724432,7.15434258 Z" id="Shape"></path>
                    </g>
                </g>
            </g>
        </g>
    </g>
</svg>